<svg width="23" height="17" viewBox="0 0 23 17" fill="currentColor" xmlns="http://www.w3.org/2000/svg">
<path d="M21.333 7C22.0694 7 22.666 7.59663 22.666 8.33301C22.666 9.06939 22.0694 9.66601 21.333 9.66602H1.33301C0.596628 9.66602 0 9.06939 0 8.33301C0 7.59663 0.596628 7 1.33301 7H21.333Z"/>
<path d="M21.333 14C22.0694 14 22.666 14.5966 22.666 15.333C22.666 16.0694 22.0694 16.666 21.333 16.666H1.33301C0.596628 16.666 0 16.0694 0 15.333C0 14.5966 0.596628 14 1.33301 14H21.333Z"/>
<path d="M21.333 0C22.0694 6.44414e-07 22.666 0.596629 22.666 1.33301C22.666 2.06939 22.0694 2.66601 21.333 2.66602H1.33301C0.596628 2.66602 0 2.06939 0 1.33301C0 0.596628 0.596628 0 1.33301 0H21.333Z"/>
</svg>
