<svg width="23" height="22" viewBox="0 0 23 22" fill="currentColor" xmlns="http://www.w3.org/2000/svg">
<path d="M7.35909 12.1282C7.35909 11.6609 6.98026 11.2821 6.51294 11.2821C6.04562 11.2821 5.66678 11.6609 5.66678 12.1282V16.641C5.66678 17.1083 6.04562 17.4872 6.51294 17.4872C6.98026 17.4872 7.35909 17.1083 7.35909 16.641V12.1282Z"/>
<path d="M15.5386 11.2821C16.0059 11.2821 16.3847 11.6609 16.3847 12.1282V16.641C16.3847 17.1083 16.0059 17.4872 15.5386 17.4872C15.0713 17.4872 14.6924 17.1083 14.6924 16.641V12.1282C14.6924 11.6609 15.0713 11.2821 15.5386 11.2821Z"/>
<path d="M11.8719 12.1282C11.8719 11.6609 11.4931 11.2821 11.0258 11.2821C10.5585 11.2821 10.1796 11.6609 10.1796 12.1282V16.641C10.1796 17.1083 10.5585 17.4872 11.0258 17.4872C11.4931 17.4872 11.8719 17.1083 11.8719 16.641V12.1282Z"/>
<path fill-rule="evenodd" clip-rule="evenodd" d="M16.9757 1.37977C16.4391 1.17008 15.8381 1.13468 15.067 1.12907C14.7503 0.461571 14.0701 0 13.2822 0H8.76937C7.98143 0 7.30129 0.461571 6.98459 1.12907C6.21342 1.13468 5.61238 1.17008 5.07586 1.37977C4.43483 1.63031 3.87726 2.05621 3.46691 2.60875C3.05294 3.16618 2.85861 3.88066 2.59114 4.86406L1.88277 7.46224C1.44559 7.68611 1.06303 7.9876 0.743905 8.39633C0.0421618 9.29506 -0.08211 10.3656 0.0427259 11.5935C0.163861 12.785 0.538989 14.2854 1.00856 16.1637L1.03834 16.2828C1.33527 17.4706 1.57634 18.435 1.86306 19.1876C2.162 19.9723 2.54153 20.6154 3.16726 21.104C3.79298 21.5925 4.50899 21.8047 5.34274 21.9044C6.14243 22 7.13647 22 8.36078 22H13.6907C14.915 22 15.909 22 16.7088 21.9044C17.5425 21.8047 18.2585 21.5925 18.8842 21.104C19.5099 20.6154 19.8894 19.9723 20.1884 19.1876C20.4752 18.435 20.7162 17.4706 21.0131 16.2828L21.0429 16.1638C21.5124 14.2856 21.8876 12.785 22.0087 11.5935C22.1335 10.3656 22.0093 9.29506 21.3076 8.39633C20.9885 7.98764 20.6059 7.68617 20.1689 7.4623L19.4605 4.86406C19.193 3.88066 18.9986 3.16618 18.5846 2.60875C18.1743 2.05621 17.6168 1.63031 16.9757 1.37977ZM5.6919 2.95598C5.93988 2.85905 6.2395 2.83053 6.98618 2.82298C7.30357 3.48869 7.98275 3.94872 8.76937 3.94872H13.2822C14.0688 3.94872 14.748 3.48869 15.0654 2.82298C15.8121 2.83053 16.1117 2.85905 16.3597 2.95598C16.7048 3.09088 17.005 3.32021 17.2261 3.61774C17.4247 3.88528 17.5413 4.25906 17.8695 5.4627L18.2684 6.92571C17.0976 6.76919 15.586 6.76921 13.708 6.76923H8.34354C6.46555 6.76921 4.95399 6.76919 3.78315 6.92569L4.18207 5.46271C4.51026 4.25906 4.62685 3.88527 4.82554 3.61773C5.0465 3.32021 5.34672 3.09088 5.6919 2.95598ZM8.76937 1.69231C8.6136 1.69231 8.48732 1.81859 8.48732 1.97436C8.48732 2.13013 8.6136 2.25641 8.76937 2.25641H13.2822C13.438 2.25641 13.5642 2.13013 13.5642 1.97436C13.5642 1.81859 13.438 1.69231 13.2822 1.69231H8.76937ZM2.07779 9.43777C2.39237 9.03489 2.88989 8.76424 3.91787 8.61553C4.96781 8.46365 6.39142 8.46154 8.41356 8.46154H13.6379C15.66 8.46154 17.0837 8.46365 18.1336 8.61553C19.1616 8.76424 19.6591 9.03489 19.9737 9.43777C20.2882 9.84077 20.4302 10.389 20.3251 11.4224C20.2178 12.4778 19.8746 13.8594 19.3841 15.8212C19.0713 17.0725 18.8535 17.938 18.607 18.585C18.3686 19.2109 18.1352 19.5418 17.8427 19.7701C17.5503 19.9983 17.1727 20.1446 16.5078 20.2241C15.8203 20.3063 14.9277 20.3077 13.6379 20.3077H8.41356C7.1238 20.3077 6.23119 20.3063 5.54367 20.2241C4.87875 20.1446 4.50111 19.9983 4.20872 19.7701C3.91634 19.5418 3.6829 19.2109 3.4445 18.585C3.19799 17.938 2.98013 17.0725 2.66733 15.8212C2.17688 13.8594 1.83365 12.4778 1.72636 11.4224C1.6213 10.389 1.7632 9.84077 2.07779 9.43777Z"/>
</svg>
