<svg width="23" height="23" viewBox="0 0 23 23" fill="currentColor" xmlns="http://www.w3.org/2000/svg">
<path d="M17.1426 9.71387C17.1425 5.61124 13.8165 2.28516 9.71387 2.28516C5.61129 2.28523 2.28523 5.61129 2.28516 9.71387C2.28516 13.8165 5.61124 17.1425 9.71387 17.1426C13.8165 17.1426 17.1426 13.8165 17.1426 9.71387ZM19.4287 9.71387C19.4287 11.9882 18.6442 14.0781 17.335 15.7334L22.5205 20.9043C22.9674 21.3499 22.9688 22.0735 22.5234 22.5205C22.1057 22.9395 21.4436 22.967 20.9941 22.6016L20.9072 22.5234L15.7168 17.3477C14.0641 18.6491 11.9807 19.4287 9.71387 19.4287C4.34887 19.4286 0 15.0788 0 9.71387C7.52517e-05 4.34892 4.34892 7.52495e-05 9.71387 0C15.0788 0 19.4286 4.34887 19.4287 9.71387Z"/>
</svg>
