<svg width="96" height="30" viewBox="0 0 96 30" fill="none" xmlns="http://www.w3.org/2000/svg">
<path d="M13.1272 0.475866C13.5147 -0.00777805 14.2417 -0.121142 14.7913 0.128381C15.1283 0.284873 15.3754 0.600936 15.485 0.951501C15.522 1.17576 15.5078 1.40311 15.5048 1.6286C15.4986 3.65991 15.5097 5.69121 15.4986 7.72252C15.4961 9.52155 15.5078 11.3212 15.4918 13.1202C16.3236 13.1363 17.1559 13.1208 17.9883 13.1239C18.2865 13.1239 18.589 12.9798 18.7122 12.6951C18.8336 11.9287 18.6438 11.1314 18.8699 10.3786C19.1281 9.54127 19.9148 8.83274 20.8168 8.83274C22.707 8.83706 24.5973 8.83336 26.4875 8.83459C27.3328 8.87402 28.0641 9.49629 28.403 10.2479C28.5921 10.6527 28.6248 11.1031 28.695 11.5387C28.8934 12.8331 29.1016 14.1257 29.2994 15.4202C29.3721 15.9525 29.3006 16.5427 28.9476 16.9691C28.6716 17.3221 28.2409 17.5679 27.7838 17.547C27.2921 17.5605 26.8528 17.226 26.3562 17.3104C25.3939 17.425 24.7846 18.5266 24.999 19.4286C25.1579 20.235 25.8985 20.9029 26.7308 20.9109C27.1436 20.9103 27.5305 20.7304 27.8737 20.5135C28.353 20.2005 29.0154 20.2036 29.491 20.5234C29.9783 20.8049 30.2272 21.3594 30.311 21.8961C30.523 23.2108 30.7232 24.5281 30.9327 25.8435C31.0177 26.4583 31.1878 27.0763 31.0812 27.6998C30.9327 28.5013 30.4133 29.2136 29.7245 29.6405C29.2908 29.9061 28.7757 29.9985 28.273 29.9874C21.5364 29.9911 14.8005 30.0114 8.06403 29.9911C6.31859 29.988 4.57378 29.9966 2.82896 29.9837C1.93006 30.0053 1.03917 29.5586 0.514249 28.8297C0.159987 28.3412 -0.0193004 27.7318 0.00164721 27.1293C0.0484714 26.5483 0.169845 25.9778 0.2561 25.4017C1.04287 20.5807 1.82471 15.7584 2.61024 10.9367C2.7501 9.87704 3.64962 8.92393 4.73397 8.83706C6.17258 8.83089 7.6118 8.83706 9.05041 8.83397C10.0183 8.85246 10.8636 9.62752 11.102 10.5431C11.2629 11.1955 11.1501 11.872 11.2074 12.5343C11.2339 12.822 11.4773 13.0666 11.7631 13.1017C12.1266 13.1535 12.4957 13.1116 12.8617 13.1239C12.8604 9.16852 12.8573 5.21311 12.8629 1.25771C12.8475 0.974913 12.9448 0.69212 13.1272 0.475866ZM4.20781 11.1216C3.92933 12.9299 3.6182 14.7326 3.33232 16.5396C2.77659 20.0311 2.19745 23.5183 1.64111 27.0097C1.55793 27.4115 1.71935 27.8526 2.04712 28.1003C2.28063 28.2925 2.59053 28.3504 2.88626 28.3498C5.22624 28.3498 7.56683 28.3529 9.9068 28.3504C9.9142 27.2476 9.90927 26.1454 9.90988 25.0431C9.93514 23.4641 10.7348 21.9096 12.0318 21.0009C13.8049 19.7428 16.3987 19.8044 18.1047 21.1567C18.9623 21.8283 19.5988 22.7814 19.876 23.8362C20.1206 24.687 20.0535 25.581 20.0627 26.4553C20.0664 27.0898 20.0522 27.7244 20.0664 28.359C22.8229 28.3381 25.5793 28.3596 28.3358 28.3479C28.7726 28.3461 29.2138 28.1015 29.3863 27.6893C29.544 27.3357 29.462 26.9444 29.4066 26.5779C29.1866 25.1429 28.9611 23.7093 28.7393 22.275C28.7307 22.0988 28.5182 21.954 28.3611 22.0538C28.0869 22.2041 27.8004 22.3335 27.4948 22.4037C26.5577 22.657 25.514 22.429 24.7445 21.8449C24.0471 21.3286 23.5745 20.5302 23.4414 19.6744C23.3231 18.8469 23.423 17.9634 23.8659 17.2408C24.3336 16.4583 25.1456 15.8748 26.055 15.7455C26.4844 15.703 26.9218 15.7196 27.3426 15.8231C27.5379 15.8896 27.7659 15.6949 27.7049 15.4885C27.4739 14.0493 27.2428 12.6095 27.0278 11.1678C26.9958 10.9762 26.9317 10.7735 26.7697 10.6515C26.5953 10.4913 26.3476 10.4642 26.1215 10.4537C24.5991 10.4617 23.0767 10.458 21.5549 10.4599C21.3411 10.4611 21.1261 10.4482 20.9136 10.4753C20.6308 10.5042 20.38 10.7605 20.38 11.0489C20.3757 11.482 20.3886 11.9151 20.3806 12.3482C20.372 12.9292 20.1607 13.5139 19.7651 13.944C19.3203 14.4486 18.6524 14.7338 17.9821 14.7301C16.2361 14.7394 14.4894 14.732 12.7427 14.7338C12.3546 14.727 11.9634 14.7597 11.5789 14.6944C10.7527 14.5798 10.0146 13.9859 9.71889 13.2071C9.44965 12.5183 9.60306 11.7673 9.54823 11.0495C9.52543 10.7094 9.20259 10.4457 8.86804 10.4617C7.57114 10.458 6.27485 10.4593 4.97795 10.4605C4.59966 10.4451 4.24786 10.7433 4.20781 11.1216Z" fill="#5A3612"/>
<path d="M15.485 0.951501C15.6994 0.923776 15.9157 0.931177 16.1319 0.93241C18.7621 0.93241 21.3923 0.933026 24.0224 0.934258C24.3748 0.910846 24.726 1.13264 24.8579 1.46041C24.9626 1.7087 24.9275 1.98287 24.9324 2.24472C24.9343 3.74432 24.9318 5.24393 24.9343 6.74292C24.9398 7.00106 24.861 7.27092 24.6681 7.45021C24.4771 7.66276 24.1777 7.7367 23.9011 7.72807C21.1002 7.72253 18.2994 7.73299 15.4986 7.72252C15.5097 5.69121 15.4986 3.65991 15.5048 1.6286C15.5078 1.40311 15.522 1.17576 15.485 0.951501Z" fill="#256D59"/>
<path d="M4.20781 11.1216C4.24786 10.7433 4.59966 10.4451 4.97795 10.4605C6.27485 10.4593 7.57114 10.458 8.86804 10.4617C9.20259 10.4457 9.52543 10.7094 9.54823 11.0495C9.60306 11.7673 9.44965 12.5183 9.71889 13.2071C10.0146 13.9859 10.7527 14.5798 11.5789 14.6944C11.9634 14.7597 12.3546 14.727 12.7427 14.7338C14.4894 14.732 16.2361 14.7394 17.9821 14.7301C18.6524 14.7338 19.3203 14.4486 19.7651 13.944C20.1607 13.5139 20.372 12.9292 20.3806 12.3482C20.3886 11.9151 20.3757 11.482 20.38 11.0489C20.38 10.7605 20.6308 10.5042 20.9136 10.4753C21.1261 10.4482 21.3411 10.4611 21.5549 10.4599C23.0767 10.458 24.5991 10.4617 26.1215 10.4537C26.3476 10.4642 26.5953 10.4913 26.7697 10.6515C26.9317 10.7735 26.9958 10.9762 27.0278 11.1678C27.2428 12.6095 27.4739 14.0493 27.7049 15.4885C27.7659 15.6949 27.5379 15.8896 27.3426 15.8231C26.9218 15.7196 26.4844 15.703 26.055 15.7455C25.1456 15.8748 24.3336 16.4583 23.8659 17.2408C23.423 17.9634 23.3231 18.8469 23.4414 19.6744C23.5745 20.5302 24.0471 21.3286 24.7445 21.8449C25.514 22.429 26.5577 22.657 27.4948 22.4037C27.8004 22.3335 28.0869 22.2041 28.3611 22.0538C28.5182 21.954 28.7307 22.0988 28.7393 22.275C28.9611 23.7093 29.1866 25.1429 29.4066 26.5779C29.462 26.9444 29.544 27.3357 29.3863 27.6893C29.2138 28.1015 28.7726 28.3461 28.3358 28.3479C25.5793 28.3596 22.8229 28.3381 20.0664 28.359C20.0522 27.7244 20.0664 27.0898 20.0627 26.4553C20.0535 25.581 20.1206 24.687 19.876 23.8362C19.5988 22.7814 18.9623 21.8283 18.1047 21.1567C16.3987 19.8044 13.8049 19.7428 12.0318 21.0009C10.7348 21.9096 9.93514 23.4641 9.90988 25.0431C9.90927 26.1454 9.9142 27.2476 9.9068 28.3504C7.56683 28.3529 5.22624 28.3498 2.88626 28.3498C2.59053 28.3504 2.28063 28.2925 2.04712 28.1003C1.71935 27.8526 1.55793 27.4115 1.64111 27.0097C2.19745 23.5183 2.77659 20.0311 3.33232 16.5396C3.6182 14.7326 3.92933 12.9299 4.20781 11.1216Z" fill="#CF9455"/>
<path d="M56.4576 1.50917C57.6054 1.38552 58.7905 1.53897 59.8594 1.98067C61.1301 2.51175 62.2071 3.5054 62.8001 4.75229C63.3326 5.84724 63.5092 7.1053 63.352 8.309C63.203 9.66539 62.5617 10.9704 61.5435 11.8843C59.7908 13.4932 57.1369 13.9103 54.9098 13.1662C53.6189 12.7245 52.4577 11.8575 51.762 10.6724C50.9784 9.42256 50.7557 7.88666 50.9575 6.44163C51.1631 5.01821 51.9214 3.67373 53.0662 2.79629C54.0375 2.04547 55.2382 1.61494 56.4576 1.50917ZM56.7578 4.04542C55.7187 4.14374 54.7526 4.77687 54.2483 5.69081C53.7679 6.48037 53.6845 7.45688 53.8535 8.35146C54.0867 9.45385 54.9157 10.405 55.9824 10.773C56.6192 10.9883 57.3134 11.0046 57.9719 10.8817C58.8568 10.7089 59.5845 10.0758 60.0709 9.34063C61.0146 7.83303 60.5856 5.65134 59.1443 4.61151C58.4665 4.11469 57.5868 3.9039 56.7578 4.04542Z" fill="#5A3612"/>
<path d="M39.1352 2.20114C39.1083 1.9464 39.3214 1.68793 39.5798 1.68272C40.2293 1.67974 40.8781 1.68346 41.5276 1.68123C41.7697 1.65888 41.985 1.88979 41.9708 2.1274C41.9835 3.43091 41.9671 4.73515 41.9783 6.0394C43.468 6.03046 44.9585 6.03642 46.4482 6.02972C46.4266 4.77835 46.4467 3.5255 46.4363 2.27414C46.4221 2.04546 46.4869 1.75422 46.7402 1.68719C47.4366 1.67378 48.1338 1.68719 48.8302 1.68197C49.0232 1.66633 49.2019 1.81307 49.2615 1.99034C49.2891 2.16017 49.2854 2.33298 49.2868 2.50504C49.2846 5.88224 49.2898 9.25943 49.2839 12.6366C49.3084 12.8772 49.2176 13.1565 48.9628 13.2318C48.574 13.3241 48.1666 13.2608 47.7711 13.2794C47.4321 13.2601 47.0798 13.3271 46.7513 13.2236C46.4728 13.1394 46.4266 12.8087 46.4363 12.5599C46.4474 11.246 46.4229 9.93204 46.4489 8.61811C44.9585 8.6047 43.468 8.60768 41.9768 8.62109C41.9701 10.011 41.982 11.4016 41.9693 12.7916C41.9768 13.0396 41.7638 13.266 41.5165 13.275C40.8975 13.2891 40.2778 13.2787 39.6588 13.2839C39.3832 13.31 39.1121 13.0649 39.1359 12.7856C39.1374 9.25719 39.1381 5.7288 39.1352 2.20114Z" fill="#5A3612"/>
<path d="M64.9497 1.80341C65.054 1.75425 65.1523 1.66934 65.276 1.68125C66.6436 1.682 68.0111 1.68274 69.3787 1.682C70.2889 1.66338 71.2326 1.77883 72.0453 2.21458C72.8818 2.66596 73.4329 3.5732 73.4925 4.51545C73.5424 5.06218 73.4918 5.63422 73.2251 6.12285C72.9905 6.61669 72.5652 6.98764 72.0967 7.25429C72.735 7.43902 73.2989 7.87923 73.608 8.47065C74.0467 9.27659 74.0929 10.2807 73.7652 11.1343C73.4419 11.9134 72.7983 12.5733 71.9924 12.8474C71.3943 13.0798 70.7574 13.196 70.1191 13.2333C68.5586 13.2802 66.9974 13.2497 65.4369 13.2549C65.2194 13.2743 65.0354 13.1551 64.908 12.9905C64.8678 11.1834 64.9036 9.37566 64.8902 7.56863C64.8894 5.78171 64.8946 3.99553 64.8887 2.20862C64.8842 2.07007 64.9162 1.93525 64.9497 1.80341ZM67.6692 3.99479C67.667 4.75306 67.6551 5.51133 67.6767 6.26959C68.2636 6.24725 68.8521 6.27406 69.4398 6.24873C69.7444 6.2249 70.0774 6.19659 70.3165 5.98431C70.8341 5.60741 70.8699 4.73965 70.3872 4.32104C70.1414 4.07896 69.7809 4.02831 69.4539 3.99702C68.8595 3.98809 68.2644 3.9933 67.6692 3.99479ZM67.67 8.46767C67.6655 9.30043 67.6573 10.1339 67.6752 10.9667C68.4677 10.9421 69.2655 11.0009 70.0535 10.89C70.4088 10.8266 70.785 10.6896 70.9846 10.3678C71.284 9.90376 71.2937 9.17454 70.8326 8.80882C70.4945 8.51981 70.0312 8.46767 69.6029 8.46246C68.9586 8.46395 68.3143 8.45576 67.67 8.46767Z" fill="#5A3612"/>
<path d="M75.5498 2.13039C75.5133 1.8749 75.7532 1.65219 76.002 1.68124C77.517 1.68198 79.0328 1.68198 80.5486 1.68198C81.4246 1.74529 82.34 1.91661 83.0528 2.46632C83.8178 3.03539 84.2088 4.01563 84.1485 4.95639C84.1559 5.918 83.5623 6.83194 82.6968 7.24236C83.3031 7.44943 83.8558 7.84793 84.1746 8.41179C84.6319 9.23337 84.6982 10.2568 84.3682 11.1357C84.0174 12.034 83.204 12.7216 82.2759 12.9651C81.2123 13.3078 80.0853 13.2519 78.9836 13.2571C78.066 13.2571 77.1483 13.2608 76.2306 13.2593C76.0407 13.2519 75.8225 13.2571 75.6787 13.1133C75.5119 12.9502 75.5543 12.6985 75.5424 12.4884C75.5483 9.03524 75.5305 5.58281 75.5498 2.13039ZM78.3207 3.99478C78.3155 4.75006 78.314 5.50609 78.3215 6.26212C79.0864 6.23382 79.8663 6.32469 80.6216 6.17051C81.3486 5.98653 81.6152 4.99214 81.1445 4.43349C80.8823 4.09756 80.4376 4.01191 80.0354 3.99478C79.4641 3.99031 78.892 3.9918 78.3207 3.99478ZM78.323 8.46467C78.3155 9.29817 78.3095 10.1309 78.3267 10.9644C79.2205 10.9168 80.1441 11.0568 81.0134 10.7946C81.7329 10.586 82.0554 9.62517 81.6368 9.01438C81.3478 8.59726 80.8078 8.47734 80.3311 8.46319C79.6615 8.4617 78.9918 8.45946 78.323 8.46467Z" fill="#5A3612"/>
<path d="M85.0848 2.28755C84.9306 2.07601 85.0468 1.71699 85.3179 1.68496C86.1149 1.68049 86.9127 1.68421 87.7104 1.68198C87.9406 1.66559 88.1231 1.85553 88.2236 2.04398C88.9424 3.40633 89.7066 4.74484 90.4299 6.10421C91.218 4.73292 91.9993 3.35717 92.7866 1.98588C92.8932 1.81605 93.0734 1.65963 93.2872 1.68123C94.0604 1.68198 94.8335 1.68347 95.6067 1.68049C95.7303 1.66187 95.8339 1.73412 95.9381 1.78998C95.9888 1.97545 96.0208 2.18699 95.8905 2.34937C94.5564 4.4685 93.2231 6.58912 91.8973 8.71346C91.828 8.81327 91.8518 8.94064 91.8459 9.05534C91.8533 10.2732 91.8481 11.4903 91.8511 12.7074C91.8511 12.8601 91.8392 13.0381 91.7081 13.1402C91.5487 13.2832 91.3215 13.2362 91.1271 13.2474C90.555 13.2303 89.9815 13.266 89.4094 13.2333C89.2426 13.2333 89.1398 13.0955 89.0415 12.983C89.0415 11.6132 89.0489 10.2427 89.037 8.87286C88.5506 8.14587 88.1395 7.37047 87.6739 6.63008C86.8144 5.18058 85.9362 3.74152 85.0848 2.28755Z" fill="#5A3612"/>
<path d="M60.5147 16.5641C61.8197 16.4248 63.1821 16.6348 64.3485 17.2501C65.5053 17.8564 66.4587 18.8545 66.9675 20.0612C67.4598 21.2358 67.5835 22.5617 67.3272 23.8086C67.103 24.9586 66.5168 26.032 65.6729 26.8446C64.8148 27.6431 63.7288 28.1921 62.578 28.4148C61.4778 28.6137 60.3285 28.563 59.2574 28.2368C57.9308 27.8159 56.7174 26.9705 55.9622 25.7907C54.6631 23.7497 54.7108 20.9081 56.1417 18.9446C57.1562 17.5562 58.8172 16.716 60.5147 16.5641ZM60.5848 19.1659C59.5129 19.3722 58.5856 20.1513 58.1938 21.1688C57.9152 21.8474 57.8735 22.6041 57.9971 23.3214C58.1684 24.3002 58.8328 25.1583 59.7006 25.6275C60.5512 26.0484 61.5873 26.1087 62.473 25.7594C63.1888 25.4599 63.7899 24.9125 64.1854 24.248C64.674 23.3915 64.7657 22.3256 64.4498 21.393C64.1616 20.5558 63.5672 19.805 62.7657 19.4102C62.0983 19.0631 61.3117 19.0191 60.5848 19.1659Z" fill="#5A3612"/>
<path d="M46.6164 17.3275C46.5874 17.0355 46.866 16.815 47.1415 16.8262C49.1787 16.815 51.2159 16.8255 53.2531 16.821C53.4602 16.8136 53.6628 16.8582 53.8498 16.9454C53.9175 17.0884 53.9928 17.2366 53.9801 17.4012C53.9794 17.8511 53.9823 18.301 53.9846 18.7509C53.9943 18.9967 53.8177 19.2604 53.5511 19.2492C52.1671 19.2634 50.7824 19.2485 49.3977 19.2559C49.4022 19.9956 49.3962 20.736 49.4015 21.4764C50.5321 21.4764 51.6636 21.4771 52.7943 21.4719C52.9634 21.4853 53.1682 21.4645 53.2896 21.6097C53.455 21.7468 53.4587 21.9739 53.4594 22.1713C53.4565 22.5452 53.4602 22.9192 53.4572 23.2938C53.455 23.48 53.4118 23.6923 53.2487 23.8055C53.0833 23.9419 52.8546 23.9203 52.6535 23.9299C51.569 23.918 50.4845 23.9366 49.4 23.9217C49.3918 25.1999 49.4082 26.4789 49.394 27.757C49.4111 27.9946 49.2666 28.2836 48.9992 28.2881C48.3557 28.309 47.7099 28.2985 47.0663 28.2941C46.8436 28.3201 46.7013 28.1377 46.6157 27.9611C46.6201 24.4163 46.6187 20.8715 46.6164 17.3275Z" fill="#5A3612"/>
<path d="M69.4263 16.8285C70.8363 16.8128 72.2471 16.8247 73.6578 16.8247C74.6217 16.8478 75.6399 17.0102 76.4228 17.6158C77.2205 18.1998 77.6793 19.1815 77.7061 20.161C77.7508 20.9431 77.6153 21.7587 77.1862 22.4268C76.7982 23.0533 76.1836 23.5382 75.4827 23.7646C76.3058 25.0808 77.1237 26.4007 77.9505 27.7146C78.0398 27.8434 78.1002 28.017 78.0026 28.1615C77.9281 28.3082 77.7404 28.2933 77.6026 28.2986C76.933 28.2986 76.2633 28.2971 75.5937 28.3008C75.336 28.3097 75.0649 28.198 74.936 27.9663C74.2306 26.6867 73.5223 25.4085 72.8035 24.137C72.4452 24.1259 72.0862 24.1326 71.7279 24.1288C71.713 25.366 71.7249 26.604 71.7219 27.842C71.7368 28.0863 71.5164 28.3038 71.2706 28.2896C70.6248 28.3038 69.979 28.3008 69.3332 28.2948C69.0442 28.3164 68.8431 28.0289 68.8833 27.76C68.8833 24.2815 68.881 20.803 68.8877 17.3245C68.8684 17.0288 69.144 16.8069 69.4263 16.8285ZM71.7286 19.1502C71.7182 20.0559 71.716 20.9624 71.7286 21.8682C72.2486 21.8756 72.7685 21.8741 73.2891 21.8712C73.6802 21.8458 74.0913 21.7691 74.4072 21.5196C74.8459 21.1695 75.0314 20.5207 74.799 20.0023C74.6202 19.5338 74.1427 19.2269 73.6534 19.1859C73.0143 19.1115 72.37 19.1755 71.7286 19.1502Z" fill="#5A3612"/>
<path d="M78.8614 17.18C78.8756 16.9245 79.1638 16.815 79.385 16.8232C82.2185 16.8195 85.0519 16.8232 87.8854 16.821C88.0723 16.8366 88.3114 16.8433 88.4224 17.0213C88.523 17.151 88.491 17.3238 88.5006 17.4779C88.4924 17.9934 88.5155 18.5103 88.482 19.0258C88.3658 19.1546 88.2183 19.2597 88.0358 19.25C87.0526 19.2708 86.0672 19.2336 85.0832 19.2664C85.1056 21.7244 85.0825 24.1824 85.0922 26.6405C85.0817 27.0628 85.1175 27.4874 85.0631 27.9082C85.0214 28.154 84.7786 28.332 84.5313 28.3082C83.9115 28.3037 83.2903 28.3283 82.6714 28.3015C82.4516 28.3119 82.3175 28.1294 82.22 27.9611C82.2125 25.0569 82.2297 22.1519 82.2133 19.2477C81.2971 19.2597 80.3809 19.2477 79.4655 19.2567C79.2383 19.2783 79.0134 19.212 78.8659 19.0325C78.8443 18.415 78.848 17.7967 78.8614 17.18Z" fill="#5A3612"/>
</svg>
